<svg width="26" height="20" viewBox="0 0 26 20" fill="none" xmlns="http://www.w3.org/2000/svg">
<path fill-rule="evenodd" clip-rule="evenodd" d="M3.11117 0.666687H23.1112C24.3334 0.666687 25.3334 1.66669 25.3334 2.88891V17.3334C25.3334 18.5556 24.3334 19.5556 23.1112 19.5556H3.11117C1.88895 19.5556 0.888947 18.5556 0.888947 17.3334V2.88891C0.888947 1.66669 1.88895 0.666687 3.11117 0.666687ZM3.11117 2.88891V17.3334H12.0001V2.88891H3.11117ZM23.1112 17.3334H14.2223V2.88891H23.1112V17.3334ZM22.0001 6.7778H15.3334V8.44446H22.0001V6.7778ZM15.3334 9.55558H22.0001V11.2222H15.3334V9.55558ZM22.0001 12.3334H15.3334V14H22.0001V12.3334Z" fill="#F8B76B"/>
</svg>
